<mxfile host="app.diagrams.net" modified="2022-01-17T21:33:03.989Z" agent="5.0 (X11; Linux x86_64) AppleWebKit/537.36 (KHTML, like Gecko) Chrome/96.0.4664.110 Safari/537.36" etag="Cgdwia0JKNfL30bCLOv5" version="16.1.2" type="github">
  <diagram id="avxEAzbVw1K7cIHSacQt" name="Page-1">
    <mxGraphModel dx="1350" dy="773" grid="1" gridSize="10" guides="1" tooltips="1" connect="1" arrows="1" fold="1" page="1" pageScale="1" pageWidth="827" pageHeight="1169" math="0" shadow="0">
      <root>
        <mxCell id="0" />
        <mxCell id="1" parent="0" />
        <mxCell id="3akI25MSRVjO1WuBP2-e-1" value="" style="rounded=0;whiteSpace=wrap;html=1;fillColor=#dae8fc;strokeColor=#000000;" vertex="1" parent="1">
          <mxGeometry x="40" y="40" width="30" height="30" as="geometry" />
        </mxCell>
        <mxCell id="3akI25MSRVjO1WuBP2-e-2" value="" style="rounded=0;whiteSpace=wrap;html=1;fillColor=#dae8fc;strokeColor=#000000;" vertex="1" parent="1">
          <mxGeometry x="70" y="40" width="30" height="30" as="geometry" />
        </mxCell>
        <mxCell id="3akI25MSRVjO1WuBP2-e-3" value="" style="rounded=0;whiteSpace=wrap;html=1;fillColor=#dae8fc;strokeColor=#000000;" vertex="1" parent="1">
          <mxGeometry x="100" y="40" width="30" height="30" as="geometry" />
        </mxCell>
        <mxCell id="3akI25MSRVjO1WuBP2-e-4" value="" style="rounded=0;whiteSpace=wrap;html=1;fillColor=#dae8fc;strokeColor=#000000;" vertex="1" parent="1">
          <mxGeometry x="130" y="40" width="30" height="30" as="geometry" />
        </mxCell>
        <mxCell id="3akI25MSRVjO1WuBP2-e-5" value="" style="rounded=0;whiteSpace=wrap;html=1;fillColor=#dae8fc;strokeColor=#000000;" vertex="1" parent="1">
          <mxGeometry x="160" y="40" width="30" height="30" as="geometry" />
        </mxCell>
        <mxCell id="3akI25MSRVjO1WuBP2-e-6" value="" style="rounded=0;whiteSpace=wrap;html=1;fillColor=#dae8fc;strokeColor=#000000;" vertex="1" parent="1">
          <mxGeometry x="190" y="40" width="30" height="30" as="geometry" />
        </mxCell>
        <mxCell id="3akI25MSRVjO1WuBP2-e-7" value="" style="rounded=0;whiteSpace=wrap;html=1;fillColor=#dae8fc;strokeColor=#000000;" vertex="1" parent="1">
          <mxGeometry x="220" y="40" width="30" height="30" as="geometry" />
        </mxCell>
        <mxCell id="3akI25MSRVjO1WuBP2-e-8" value="" style="rounded=0;whiteSpace=wrap;html=1;fillColor=#dae8fc;strokeColor=#000000;" vertex="1" parent="1">
          <mxGeometry x="250" y="40" width="30" height="30" as="geometry" />
        </mxCell>
        <mxCell id="3akI25MSRVjO1WuBP2-e-9" value="" style="rounded=0;whiteSpace=wrap;html=1;fillColor=#dae8fc;strokeColor=#000000;" vertex="1" parent="1">
          <mxGeometry x="40" y="70" width="30" height="30" as="geometry" />
        </mxCell>
        <mxCell id="3akI25MSRVjO1WuBP2-e-10" value="" style="rounded=0;whiteSpace=wrap;html=1;fillColor=#dae8fc;strokeColor=#000000;" vertex="1" parent="1">
          <mxGeometry x="70" y="70" width="30" height="30" as="geometry" />
        </mxCell>
        <mxCell id="3akI25MSRVjO1WuBP2-e-11" value="" style="rounded=0;whiteSpace=wrap;html=1;fillColor=#dae8fc;strokeColor=#000000;" vertex="1" parent="1">
          <mxGeometry x="100" y="70" width="30" height="30" as="geometry" />
        </mxCell>
        <mxCell id="3akI25MSRVjO1WuBP2-e-12" value="" style="rounded=0;whiteSpace=wrap;html=1;fillColor=#dae8fc;strokeColor=#000000;" vertex="1" parent="1">
          <mxGeometry x="130" y="70" width="30" height="30" as="geometry" />
        </mxCell>
        <mxCell id="3akI25MSRVjO1WuBP2-e-13" value="" style="rounded=0;whiteSpace=wrap;html=1;fillColor=#dae8fc;strokeColor=#000000;" vertex="1" parent="1">
          <mxGeometry x="160" y="70" width="30" height="30" as="geometry" />
        </mxCell>
        <mxCell id="3akI25MSRVjO1WuBP2-e-14" value="" style="rounded=0;whiteSpace=wrap;html=1;fillColor=#dae8fc;strokeColor=#000000;" vertex="1" parent="1">
          <mxGeometry x="190" y="70" width="30" height="30" as="geometry" />
        </mxCell>
        <mxCell id="3akI25MSRVjO1WuBP2-e-15" value="" style="rounded=0;whiteSpace=wrap;html=1;fillColor=#dae8fc;strokeColor=#000000;" vertex="1" parent="1">
          <mxGeometry x="220" y="70" width="30" height="30" as="geometry" />
        </mxCell>
        <mxCell id="3akI25MSRVjO1WuBP2-e-16" value="" style="rounded=0;whiteSpace=wrap;html=1;fillColor=#dae8fc;strokeColor=#000000;" vertex="1" parent="1">
          <mxGeometry x="250" y="70" width="30" height="30" as="geometry" />
        </mxCell>
        <mxCell id="3akI25MSRVjO1WuBP2-e-33" value="" style="rounded=0;whiteSpace=wrap;html=1;fillColor=#dae8fc;strokeColor=#000000;" vertex="1" parent="1">
          <mxGeometry x="40" y="100" width="30" height="30" as="geometry" />
        </mxCell>
        <mxCell id="3akI25MSRVjO1WuBP2-e-34" value="" style="rounded=0;whiteSpace=wrap;html=1;fillColor=#dae8fc;strokeColor=#000000;" vertex="1" parent="1">
          <mxGeometry x="70" y="100" width="30" height="30" as="geometry" />
        </mxCell>
        <mxCell id="3akI25MSRVjO1WuBP2-e-35" value="" style="rounded=0;whiteSpace=wrap;html=1;fillColor=#dae8fc;strokeColor=#000000;" vertex="1" parent="1">
          <mxGeometry x="100" y="100" width="30" height="30" as="geometry" />
        </mxCell>
        <mxCell id="3akI25MSRVjO1WuBP2-e-36" value="" style="rounded=0;whiteSpace=wrap;html=1;fillColor=#dae8fc;strokeColor=#000000;" vertex="1" parent="1">
          <mxGeometry x="130" y="100" width="30" height="30" as="geometry" />
        </mxCell>
        <mxCell id="3akI25MSRVjO1WuBP2-e-37" value="" style="rounded=0;whiteSpace=wrap;html=1;fillColor=#dae8fc;strokeColor=#000000;" vertex="1" parent="1">
          <mxGeometry x="160" y="100" width="30" height="30" as="geometry" />
        </mxCell>
        <mxCell id="3akI25MSRVjO1WuBP2-e-38" value="" style="rounded=0;whiteSpace=wrap;html=1;fillColor=#dae8fc;strokeColor=#000000;" vertex="1" parent="1">
          <mxGeometry x="190" y="100" width="30" height="30" as="geometry" />
        </mxCell>
        <mxCell id="3akI25MSRVjO1WuBP2-e-39" value="" style="rounded=0;whiteSpace=wrap;html=1;fillColor=#dae8fc;strokeColor=#000000;" vertex="1" parent="1">
          <mxGeometry x="220" y="100" width="30" height="30" as="geometry" />
        </mxCell>
        <mxCell id="3akI25MSRVjO1WuBP2-e-40" value="" style="rounded=0;whiteSpace=wrap;html=1;fillColor=#dae8fc;strokeColor=#000000;" vertex="1" parent="1">
          <mxGeometry x="250" y="100" width="30" height="30" as="geometry" />
        </mxCell>
        <mxCell id="3akI25MSRVjO1WuBP2-e-41" value="" style="rounded=0;whiteSpace=wrap;html=1;fillColor=#dae8fc;strokeColor=#000000;" vertex="1" parent="1">
          <mxGeometry x="40" y="130" width="30" height="30" as="geometry" />
        </mxCell>
        <mxCell id="3akI25MSRVjO1WuBP2-e-42" value="" style="rounded=0;whiteSpace=wrap;html=1;fillColor=#dae8fc;strokeColor=#000000;" vertex="1" parent="1">
          <mxGeometry x="70" y="130" width="30" height="30" as="geometry" />
        </mxCell>
        <mxCell id="3akI25MSRVjO1WuBP2-e-43" value="" style="rounded=0;whiteSpace=wrap;html=1;fillColor=#dae8fc;strokeColor=#000000;" vertex="1" parent="1">
          <mxGeometry x="100" y="130" width="30" height="30" as="geometry" />
        </mxCell>
        <mxCell id="3akI25MSRVjO1WuBP2-e-44" value="" style="rounded=0;whiteSpace=wrap;html=1;fillColor=#dae8fc;strokeColor=#000000;" vertex="1" parent="1">
          <mxGeometry x="130" y="130" width="30" height="30" as="geometry" />
        </mxCell>
        <mxCell id="3akI25MSRVjO1WuBP2-e-45" value="" style="rounded=0;whiteSpace=wrap;html=1;fillColor=#dae8fc;strokeColor=#000000;" vertex="1" parent="1">
          <mxGeometry x="160" y="130" width="30" height="30" as="geometry" />
        </mxCell>
        <mxCell id="3akI25MSRVjO1WuBP2-e-46" value="" style="rounded=0;whiteSpace=wrap;html=1;fillColor=#dae8fc;strokeColor=#000000;" vertex="1" parent="1">
          <mxGeometry x="190" y="130" width="30" height="30" as="geometry" />
        </mxCell>
        <mxCell id="3akI25MSRVjO1WuBP2-e-47" value="" style="rounded=0;whiteSpace=wrap;html=1;fillColor=#dae8fc;strokeColor=#000000;" vertex="1" parent="1">
          <mxGeometry x="220" y="130" width="30" height="30" as="geometry" />
        </mxCell>
        <mxCell id="3akI25MSRVjO1WuBP2-e-48" value="" style="rounded=0;whiteSpace=wrap;html=1;fillColor=#dae8fc;strokeColor=#000000;" vertex="1" parent="1">
          <mxGeometry x="250" y="130" width="30" height="30" as="geometry" />
        </mxCell>
        <mxCell id="3akI25MSRVjO1WuBP2-e-49" value="" style="rounded=0;whiteSpace=wrap;html=1;fillColor=#dae8fc;strokeColor=#000000;" vertex="1" parent="1">
          <mxGeometry x="40" y="160" width="30" height="30" as="geometry" />
        </mxCell>
        <mxCell id="3akI25MSRVjO1WuBP2-e-50" value="" style="rounded=0;whiteSpace=wrap;html=1;fillColor=#dae8fc;strokeColor=#000000;" vertex="1" parent="1">
          <mxGeometry x="70" y="160" width="30" height="30" as="geometry" />
        </mxCell>
        <mxCell id="3akI25MSRVjO1WuBP2-e-51" value="" style="rounded=0;whiteSpace=wrap;html=1;fillColor=#dae8fc;strokeColor=#000000;" vertex="1" parent="1">
          <mxGeometry x="100" y="160" width="30" height="30" as="geometry" />
        </mxCell>
        <mxCell id="3akI25MSRVjO1WuBP2-e-52" value="" style="rounded=0;whiteSpace=wrap;html=1;fillColor=#dae8fc;strokeColor=#000000;" vertex="1" parent="1">
          <mxGeometry x="130" y="160" width="30" height="30" as="geometry" />
        </mxCell>
        <mxCell id="3akI25MSRVjO1WuBP2-e-53" value="" style="rounded=0;whiteSpace=wrap;html=1;fillColor=#dae8fc;strokeColor=#000000;" vertex="1" parent="1">
          <mxGeometry x="160" y="160" width="30" height="30" as="geometry" />
        </mxCell>
        <mxCell id="3akI25MSRVjO1WuBP2-e-54" value="" style="rounded=0;whiteSpace=wrap;html=1;fillColor=#dae8fc;strokeColor=#000000;" vertex="1" parent="1">
          <mxGeometry x="190" y="160" width="30" height="30" as="geometry" />
        </mxCell>
        <mxCell id="3akI25MSRVjO1WuBP2-e-55" value="" style="rounded=0;whiteSpace=wrap;html=1;fillColor=#dae8fc;strokeColor=#000000;" vertex="1" parent="1">
          <mxGeometry x="220" y="160" width="30" height="30" as="geometry" />
        </mxCell>
        <mxCell id="3akI25MSRVjO1WuBP2-e-56" value="" style="rounded=0;whiteSpace=wrap;html=1;fillColor=#dae8fc;strokeColor=#000000;" vertex="1" parent="1">
          <mxGeometry x="250" y="160" width="30" height="30" as="geometry" />
        </mxCell>
        <mxCell id="3akI25MSRVjO1WuBP2-e-57" value="" style="rounded=0;whiteSpace=wrap;html=1;fillColor=#dae8fc;strokeColor=#000000;" vertex="1" parent="1">
          <mxGeometry x="40" y="190" width="30" height="30" as="geometry" />
        </mxCell>
        <mxCell id="3akI25MSRVjO1WuBP2-e-58" value="" style="rounded=0;whiteSpace=wrap;html=1;fillColor=#dae8fc;strokeColor=#000000;" vertex="1" parent="1">
          <mxGeometry x="70" y="190" width="30" height="30" as="geometry" />
        </mxCell>
        <mxCell id="3akI25MSRVjO1WuBP2-e-59" value="" style="rounded=0;whiteSpace=wrap;html=1;fillColor=#dae8fc;strokeColor=#000000;" vertex="1" parent="1">
          <mxGeometry x="100" y="190" width="30" height="30" as="geometry" />
        </mxCell>
        <mxCell id="3akI25MSRVjO1WuBP2-e-60" value="" style="rounded=0;whiteSpace=wrap;html=1;fillColor=#dae8fc;strokeColor=#000000;" vertex="1" parent="1">
          <mxGeometry x="130" y="190" width="30" height="30" as="geometry" />
        </mxCell>
        <mxCell id="3akI25MSRVjO1WuBP2-e-61" value="" style="rounded=0;whiteSpace=wrap;html=1;fillColor=#dae8fc;strokeColor=#000000;" vertex="1" parent="1">
          <mxGeometry x="160" y="190" width="30" height="30" as="geometry" />
        </mxCell>
        <mxCell id="3akI25MSRVjO1WuBP2-e-62" value="" style="rounded=0;whiteSpace=wrap;html=1;fillColor=#dae8fc;strokeColor=#000000;" vertex="1" parent="1">
          <mxGeometry x="190" y="190" width="30" height="30" as="geometry" />
        </mxCell>
        <mxCell id="3akI25MSRVjO1WuBP2-e-63" value="" style="rounded=0;whiteSpace=wrap;html=1;fillColor=#dae8fc;strokeColor=#000000;" vertex="1" parent="1">
          <mxGeometry x="220" y="190" width="30" height="30" as="geometry" />
        </mxCell>
        <mxCell id="3akI25MSRVjO1WuBP2-e-64" value="" style="rounded=0;whiteSpace=wrap;html=1;fillColor=#dae8fc;strokeColor=#000000;" vertex="1" parent="1">
          <mxGeometry x="250" y="190" width="30" height="30" as="geometry" />
        </mxCell>
        <mxCell id="3akI25MSRVjO1WuBP2-e-65" value="" style="rounded=0;whiteSpace=wrap;html=1;fillColor=#dae8fc;strokeColor=#000000;" vertex="1" parent="1">
          <mxGeometry x="40" y="220" width="30" height="30" as="geometry" />
        </mxCell>
        <mxCell id="3akI25MSRVjO1WuBP2-e-66" value="" style="rounded=0;whiteSpace=wrap;html=1;fillColor=#dae8fc;strokeColor=#000000;" vertex="1" parent="1">
          <mxGeometry x="70" y="220" width="30" height="30" as="geometry" />
        </mxCell>
        <mxCell id="3akI25MSRVjO1WuBP2-e-67" value="" style="rounded=0;whiteSpace=wrap;html=1;fillColor=#dae8fc;strokeColor=#000000;" vertex="1" parent="1">
          <mxGeometry x="100" y="220" width="30" height="30" as="geometry" />
        </mxCell>
        <mxCell id="3akI25MSRVjO1WuBP2-e-68" value="" style="rounded=0;whiteSpace=wrap;html=1;fillColor=#dae8fc;strokeColor=#000000;" vertex="1" parent="1">
          <mxGeometry x="130" y="220" width="30" height="30" as="geometry" />
        </mxCell>
        <mxCell id="3akI25MSRVjO1WuBP2-e-69" value="" style="rounded=0;whiteSpace=wrap;html=1;fillColor=#dae8fc;strokeColor=#000000;" vertex="1" parent="1">
          <mxGeometry x="160" y="220" width="30" height="30" as="geometry" />
        </mxCell>
        <mxCell id="3akI25MSRVjO1WuBP2-e-70" value="" style="rounded=0;whiteSpace=wrap;html=1;fillColor=#dae8fc;strokeColor=#000000;" vertex="1" parent="1">
          <mxGeometry x="190" y="220" width="30" height="30" as="geometry" />
        </mxCell>
        <mxCell id="3akI25MSRVjO1WuBP2-e-71" value="" style="rounded=0;whiteSpace=wrap;html=1;fillColor=#dae8fc;strokeColor=#000000;" vertex="1" parent="1">
          <mxGeometry x="220" y="220" width="30" height="30" as="geometry" />
        </mxCell>
        <mxCell id="3akI25MSRVjO1WuBP2-e-72" value="" style="rounded=0;whiteSpace=wrap;html=1;fillColor=#dae8fc;strokeColor=#000000;" vertex="1" parent="1">
          <mxGeometry x="250" y="220" width="30" height="30" as="geometry" />
        </mxCell>
        <mxCell id="3akI25MSRVjO1WuBP2-e-73" value="" style="rounded=0;whiteSpace=wrap;html=1;fillColor=#dae8fc;strokeColor=#000000;" vertex="1" parent="1">
          <mxGeometry x="40" y="250" width="30" height="30" as="geometry" />
        </mxCell>
        <mxCell id="3akI25MSRVjO1WuBP2-e-74" value="" style="rounded=0;whiteSpace=wrap;html=1;fillColor=#dae8fc;strokeColor=#000000;" vertex="1" parent="1">
          <mxGeometry x="70" y="250" width="30" height="30" as="geometry" />
        </mxCell>
        <mxCell id="3akI25MSRVjO1WuBP2-e-75" value="" style="rounded=0;whiteSpace=wrap;html=1;fillColor=#dae8fc;strokeColor=#000000;" vertex="1" parent="1">
          <mxGeometry x="100" y="250" width="30" height="30" as="geometry" />
        </mxCell>
        <mxCell id="3akI25MSRVjO1WuBP2-e-76" value="" style="rounded=0;whiteSpace=wrap;html=1;fillColor=#dae8fc;strokeColor=#000000;" vertex="1" parent="1">
          <mxGeometry x="130" y="250" width="30" height="30" as="geometry" />
        </mxCell>
        <mxCell id="3akI25MSRVjO1WuBP2-e-77" value="" style="rounded=0;whiteSpace=wrap;html=1;fillColor=#dae8fc;strokeColor=#000000;" vertex="1" parent="1">
          <mxGeometry x="160" y="250" width="30" height="30" as="geometry" />
        </mxCell>
        <mxCell id="3akI25MSRVjO1WuBP2-e-78" value="" style="rounded=0;whiteSpace=wrap;html=1;fillColor=#dae8fc;strokeColor=#000000;" vertex="1" parent="1">
          <mxGeometry x="190" y="250" width="30" height="30" as="geometry" />
        </mxCell>
        <mxCell id="3akI25MSRVjO1WuBP2-e-79" value="" style="rounded=0;whiteSpace=wrap;html=1;fillColor=#dae8fc;strokeColor=#000000;" vertex="1" parent="1">
          <mxGeometry x="220" y="250" width="30" height="30" as="geometry" />
        </mxCell>
        <mxCell id="3akI25MSRVjO1WuBP2-e-80" value="" style="rounded=0;whiteSpace=wrap;html=1;fillColor=#dae8fc;strokeColor=#000000;" vertex="1" parent="1">
          <mxGeometry x="250" y="250" width="30" height="30" as="geometry" />
        </mxCell>
        <mxCell id="3akI25MSRVjO1WuBP2-e-81" value="" style="rounded=0;whiteSpace=wrap;html=1;fillColor=#dae8fc;strokeColor=#000000;" vertex="1" parent="1">
          <mxGeometry x="400" y="40" width="30" height="30" as="geometry" />
        </mxCell>
        <mxCell id="3akI25MSRVjO1WuBP2-e-82" value="" style="rounded=0;whiteSpace=wrap;html=1;fillColor=#dae8fc;strokeColor=#000000;" vertex="1" parent="1">
          <mxGeometry x="430" y="40" width="30" height="30" as="geometry" />
        </mxCell>
        <mxCell id="3akI25MSRVjO1WuBP2-e-83" value="" style="rounded=0;whiteSpace=wrap;html=1;fillColor=#dae8fc;strokeColor=#000000;" vertex="1" parent="1">
          <mxGeometry x="460" y="40" width="30" height="30" as="geometry" />
        </mxCell>
        <mxCell id="3akI25MSRVjO1WuBP2-e-84" value="" style="rounded=0;whiteSpace=wrap;html=1;fillColor=#dae8fc;strokeColor=#000000;" vertex="1" parent="1">
          <mxGeometry x="490" y="40" width="30" height="30" as="geometry" />
        </mxCell>
        <mxCell id="3akI25MSRVjO1WuBP2-e-85" value="" style="rounded=0;whiteSpace=wrap;html=1;fillColor=#dae8fc;strokeColor=#000000;" vertex="1" parent="1">
          <mxGeometry x="520" y="40" width="30" height="30" as="geometry" />
        </mxCell>
        <mxCell id="3akI25MSRVjO1WuBP2-e-86" value="" style="rounded=0;whiteSpace=wrap;html=1;fillColor=#dae8fc;strokeColor=#000000;" vertex="1" parent="1">
          <mxGeometry x="550" y="40" width="30" height="30" as="geometry" />
        </mxCell>
        <mxCell id="3akI25MSRVjO1WuBP2-e-87" value="" style="rounded=0;whiteSpace=wrap;html=1;fillColor=#dae8fc;strokeColor=#000000;" vertex="1" parent="1">
          <mxGeometry x="580" y="40" width="30" height="30" as="geometry" />
        </mxCell>
        <mxCell id="3akI25MSRVjO1WuBP2-e-88" value="" style="rounded=0;whiteSpace=wrap;html=1;fillColor=#dae8fc;strokeColor=#000000;" vertex="1" parent="1">
          <mxGeometry x="610" y="40" width="30" height="30" as="geometry" />
        </mxCell>
        <mxCell id="3akI25MSRVjO1WuBP2-e-89" value="" style="rounded=0;whiteSpace=wrap;html=1;fillColor=#dae8fc;strokeColor=#000000;" vertex="1" parent="1">
          <mxGeometry x="400" y="70" width="30" height="30" as="geometry" />
        </mxCell>
        <mxCell id="3akI25MSRVjO1WuBP2-e-90" value="" style="rounded=0;whiteSpace=wrap;html=1;fillColor=#dae8fc;strokeColor=#000000;" vertex="1" parent="1">
          <mxGeometry x="430" y="70" width="30" height="30" as="geometry" />
        </mxCell>
        <mxCell id="3akI25MSRVjO1WuBP2-e-91" value="" style="rounded=0;whiteSpace=wrap;html=1;fillColor=#dae8fc;strokeColor=#000000;" vertex="1" parent="1">
          <mxGeometry x="460" y="70" width="30" height="30" as="geometry" />
        </mxCell>
        <mxCell id="3akI25MSRVjO1WuBP2-e-92" value="" style="rounded=0;whiteSpace=wrap;html=1;fillColor=#dae8fc;strokeColor=#000000;" vertex="1" parent="1">
          <mxGeometry x="490" y="70" width="30" height="30" as="geometry" />
        </mxCell>
        <mxCell id="3akI25MSRVjO1WuBP2-e-93" value="" style="rounded=0;whiteSpace=wrap;html=1;fillColor=#dae8fc;strokeColor=#000000;" vertex="1" parent="1">
          <mxGeometry x="520" y="70" width="30" height="30" as="geometry" />
        </mxCell>
        <mxCell id="3akI25MSRVjO1WuBP2-e-94" value="" style="rounded=0;whiteSpace=wrap;html=1;fillColor=#dae8fc;strokeColor=#000000;" vertex="1" parent="1">
          <mxGeometry x="550" y="70" width="30" height="30" as="geometry" />
        </mxCell>
        <mxCell id="3akI25MSRVjO1WuBP2-e-95" value="" style="rounded=0;whiteSpace=wrap;html=1;fillColor=#dae8fc;strokeColor=#000000;" vertex="1" parent="1">
          <mxGeometry x="580" y="70" width="30" height="30" as="geometry" />
        </mxCell>
        <mxCell id="3akI25MSRVjO1WuBP2-e-96" value="" style="rounded=0;whiteSpace=wrap;html=1;fillColor=#dae8fc;strokeColor=#000000;" vertex="1" parent="1">
          <mxGeometry x="610" y="70" width="30" height="30" as="geometry" />
        </mxCell>
        <mxCell id="3akI25MSRVjO1WuBP2-e-97" value="" style="rounded=0;whiteSpace=wrap;html=1;fillColor=#dae8fc;strokeColor=#000000;" vertex="1" parent="1">
          <mxGeometry x="400" y="100" width="30" height="30" as="geometry" />
        </mxCell>
        <mxCell id="3akI25MSRVjO1WuBP2-e-98" value="" style="rounded=0;whiteSpace=wrap;html=1;fillColor=#dae8fc;strokeColor=#000000;" vertex="1" parent="1">
          <mxGeometry x="430" y="100" width="30" height="30" as="geometry" />
        </mxCell>
        <mxCell id="3akI25MSRVjO1WuBP2-e-99" value="" style="rounded=0;whiteSpace=wrap;html=1;fillColor=#dae8fc;strokeColor=#000000;" vertex="1" parent="1">
          <mxGeometry x="460" y="100" width="30" height="30" as="geometry" />
        </mxCell>
        <mxCell id="3akI25MSRVjO1WuBP2-e-100" value="" style="rounded=0;whiteSpace=wrap;html=1;fillColor=#dae8fc;strokeColor=#000000;" vertex="1" parent="1">
          <mxGeometry x="490" y="100" width="30" height="30" as="geometry" />
        </mxCell>
        <mxCell id="3akI25MSRVjO1WuBP2-e-101" value="" style="rounded=0;whiteSpace=wrap;html=1;fillColor=#dae8fc;strokeColor=#000000;" vertex="1" parent="1">
          <mxGeometry x="520" y="100" width="30" height="30" as="geometry" />
        </mxCell>
        <mxCell id="3akI25MSRVjO1WuBP2-e-102" value="" style="rounded=0;whiteSpace=wrap;html=1;fillColor=#dae8fc;strokeColor=#000000;" vertex="1" parent="1">
          <mxGeometry x="550" y="100" width="30" height="30" as="geometry" />
        </mxCell>
        <mxCell id="3akI25MSRVjO1WuBP2-e-103" value="" style="rounded=0;whiteSpace=wrap;html=1;fillColor=#dae8fc;strokeColor=#000000;" vertex="1" parent="1">
          <mxGeometry x="580" y="100" width="30" height="30" as="geometry" />
        </mxCell>
        <mxCell id="3akI25MSRVjO1WuBP2-e-104" value="" style="rounded=0;whiteSpace=wrap;html=1;fillColor=#dae8fc;strokeColor=#000000;" vertex="1" parent="1">
          <mxGeometry x="610" y="100" width="30" height="30" as="geometry" />
        </mxCell>
        <mxCell id="3akI25MSRVjO1WuBP2-e-105" value="" style="rounded=0;whiteSpace=wrap;html=1;fillColor=#dae8fc;strokeColor=#000000;" vertex="1" parent="1">
          <mxGeometry x="400" y="130" width="30" height="30" as="geometry" />
        </mxCell>
        <mxCell id="3akI25MSRVjO1WuBP2-e-106" value="" style="rounded=0;whiteSpace=wrap;html=1;fillColor=#dae8fc;strokeColor=#000000;" vertex="1" parent="1">
          <mxGeometry x="430" y="130" width="30" height="30" as="geometry" />
        </mxCell>
        <mxCell id="3akI25MSRVjO1WuBP2-e-107" value="" style="rounded=0;whiteSpace=wrap;html=1;fillColor=#dae8fc;strokeColor=#000000;" vertex="1" parent="1">
          <mxGeometry x="460" y="130" width="30" height="30" as="geometry" />
        </mxCell>
        <mxCell id="3akI25MSRVjO1WuBP2-e-108" value="" style="rounded=0;whiteSpace=wrap;html=1;fillColor=#dae8fc;strokeColor=#000000;" vertex="1" parent="1">
          <mxGeometry x="490" y="130" width="30" height="30" as="geometry" />
        </mxCell>
        <mxCell id="3akI25MSRVjO1WuBP2-e-109" value="" style="rounded=0;whiteSpace=wrap;html=1;fillColor=#dae8fc;strokeColor=#000000;" vertex="1" parent="1">
          <mxGeometry x="520" y="130" width="30" height="30" as="geometry" />
        </mxCell>
        <mxCell id="3akI25MSRVjO1WuBP2-e-110" value="" style="rounded=0;whiteSpace=wrap;html=1;fillColor=#dae8fc;strokeColor=#000000;" vertex="1" parent="1">
          <mxGeometry x="550" y="130" width="30" height="30" as="geometry" />
        </mxCell>
        <mxCell id="3akI25MSRVjO1WuBP2-e-111" value="" style="rounded=0;whiteSpace=wrap;html=1;fillColor=#dae8fc;strokeColor=#000000;" vertex="1" parent="1">
          <mxGeometry x="580" y="130" width="30" height="30" as="geometry" />
        </mxCell>
        <mxCell id="3akI25MSRVjO1WuBP2-e-112" value="" style="rounded=0;whiteSpace=wrap;html=1;fillColor=#dae8fc;strokeColor=#000000;" vertex="1" parent="1">
          <mxGeometry x="610" y="130" width="30" height="30" as="geometry" />
        </mxCell>
        <mxCell id="3akI25MSRVjO1WuBP2-e-113" value="" style="rounded=0;whiteSpace=wrap;html=1;fillColor=#dae8fc;strokeColor=#000000;" vertex="1" parent="1">
          <mxGeometry x="400" y="160" width="30" height="30" as="geometry" />
        </mxCell>
        <mxCell id="3akI25MSRVjO1WuBP2-e-114" value="" style="rounded=0;whiteSpace=wrap;html=1;fillColor=#dae8fc;strokeColor=#000000;" vertex="1" parent="1">
          <mxGeometry x="430" y="160" width="30" height="30" as="geometry" />
        </mxCell>
        <mxCell id="3akI25MSRVjO1WuBP2-e-115" value="" style="rounded=0;whiteSpace=wrap;html=1;fillColor=#dae8fc;strokeColor=#000000;" vertex="1" parent="1">
          <mxGeometry x="460" y="160" width="30" height="30" as="geometry" />
        </mxCell>
        <mxCell id="3akI25MSRVjO1WuBP2-e-116" value="" style="rounded=0;whiteSpace=wrap;html=1;fillColor=#dae8fc;strokeColor=#000000;" vertex="1" parent="1">
          <mxGeometry x="490" y="160" width="30" height="30" as="geometry" />
        </mxCell>
        <mxCell id="3akI25MSRVjO1WuBP2-e-117" value="" style="rounded=0;whiteSpace=wrap;html=1;fillColor=#dae8fc;strokeColor=#000000;" vertex="1" parent="1">
          <mxGeometry x="520" y="160" width="30" height="30" as="geometry" />
        </mxCell>
        <mxCell id="3akI25MSRVjO1WuBP2-e-118" value="" style="rounded=0;whiteSpace=wrap;html=1;fillColor=#dae8fc;strokeColor=#000000;" vertex="1" parent="1">
          <mxGeometry x="550" y="160" width="30" height="30" as="geometry" />
        </mxCell>
        <mxCell id="3akI25MSRVjO1WuBP2-e-119" value="" style="rounded=0;whiteSpace=wrap;html=1;fillColor=#dae8fc;strokeColor=#000000;" vertex="1" parent="1">
          <mxGeometry x="580" y="160" width="30" height="30" as="geometry" />
        </mxCell>
        <mxCell id="3akI25MSRVjO1WuBP2-e-120" value="" style="rounded=0;whiteSpace=wrap;html=1;fillColor=#dae8fc;strokeColor=#000000;" vertex="1" parent="1">
          <mxGeometry x="610" y="160" width="30" height="30" as="geometry" />
        </mxCell>
        <mxCell id="3akI25MSRVjO1WuBP2-e-121" value="" style="rounded=0;whiteSpace=wrap;html=1;fillColor=#dae8fc;strokeColor=#000000;" vertex="1" parent="1">
          <mxGeometry x="400" y="190" width="30" height="30" as="geometry" />
        </mxCell>
        <mxCell id="3akI25MSRVjO1WuBP2-e-122" value="" style="rounded=0;whiteSpace=wrap;html=1;fillColor=#dae8fc;strokeColor=#000000;" vertex="1" parent="1">
          <mxGeometry x="430" y="190" width="30" height="30" as="geometry" />
        </mxCell>
        <mxCell id="3akI25MSRVjO1WuBP2-e-123" value="" style="rounded=0;whiteSpace=wrap;html=1;fillColor=#dae8fc;strokeColor=#000000;" vertex="1" parent="1">
          <mxGeometry x="460" y="190" width="30" height="30" as="geometry" />
        </mxCell>
        <mxCell id="3akI25MSRVjO1WuBP2-e-124" value="" style="rounded=0;whiteSpace=wrap;html=1;fillColor=#dae8fc;strokeColor=#000000;" vertex="1" parent="1">
          <mxGeometry x="490" y="190" width="30" height="30" as="geometry" />
        </mxCell>
        <mxCell id="3akI25MSRVjO1WuBP2-e-125" value="" style="rounded=0;whiteSpace=wrap;html=1;fillColor=#dae8fc;strokeColor=#000000;" vertex="1" parent="1">
          <mxGeometry x="520" y="190" width="30" height="30" as="geometry" />
        </mxCell>
        <mxCell id="3akI25MSRVjO1WuBP2-e-126" value="" style="rounded=0;whiteSpace=wrap;html=1;fillColor=#dae8fc;strokeColor=#000000;" vertex="1" parent="1">
          <mxGeometry x="550" y="190" width="30" height="30" as="geometry" />
        </mxCell>
        <mxCell id="3akI25MSRVjO1WuBP2-e-127" value="" style="rounded=0;whiteSpace=wrap;html=1;fillColor=#dae8fc;strokeColor=#000000;" vertex="1" parent="1">
          <mxGeometry x="580" y="190" width="30" height="30" as="geometry" />
        </mxCell>
        <mxCell id="3akI25MSRVjO1WuBP2-e-128" value="" style="rounded=0;whiteSpace=wrap;html=1;fillColor=#dae8fc;strokeColor=#000000;" vertex="1" parent="1">
          <mxGeometry x="610" y="190" width="30" height="30" as="geometry" />
        </mxCell>
        <mxCell id="3akI25MSRVjO1WuBP2-e-129" value="" style="rounded=0;whiteSpace=wrap;html=1;fillColor=#dae8fc;strokeColor=#000000;" vertex="1" parent="1">
          <mxGeometry x="400" y="220" width="30" height="30" as="geometry" />
        </mxCell>
        <mxCell id="3akI25MSRVjO1WuBP2-e-130" value="" style="rounded=0;whiteSpace=wrap;html=1;fillColor=#dae8fc;strokeColor=#000000;" vertex="1" parent="1">
          <mxGeometry x="430" y="220" width="30" height="30" as="geometry" />
        </mxCell>
        <mxCell id="3akI25MSRVjO1WuBP2-e-131" value="" style="rounded=0;whiteSpace=wrap;html=1;fillColor=#dae8fc;strokeColor=#000000;" vertex="1" parent="1">
          <mxGeometry x="460" y="220" width="30" height="30" as="geometry" />
        </mxCell>
        <mxCell id="3akI25MSRVjO1WuBP2-e-132" value="" style="rounded=0;whiteSpace=wrap;html=1;fillColor=#dae8fc;strokeColor=#000000;" vertex="1" parent="1">
          <mxGeometry x="490" y="220" width="30" height="30" as="geometry" />
        </mxCell>
        <mxCell id="3akI25MSRVjO1WuBP2-e-133" value="" style="rounded=0;whiteSpace=wrap;html=1;fillColor=#dae8fc;strokeColor=#000000;" vertex="1" parent="1">
          <mxGeometry x="520" y="220" width="30" height="30" as="geometry" />
        </mxCell>
        <mxCell id="3akI25MSRVjO1WuBP2-e-134" value="" style="rounded=0;whiteSpace=wrap;html=1;fillColor=#dae8fc;strokeColor=#000000;" vertex="1" parent="1">
          <mxGeometry x="550" y="220" width="30" height="30" as="geometry" />
        </mxCell>
        <mxCell id="3akI25MSRVjO1WuBP2-e-135" value="" style="rounded=0;whiteSpace=wrap;html=1;fillColor=#dae8fc;strokeColor=#000000;" vertex="1" parent="1">
          <mxGeometry x="580" y="220" width="30" height="30" as="geometry" />
        </mxCell>
        <mxCell id="3akI25MSRVjO1WuBP2-e-136" value="" style="rounded=0;whiteSpace=wrap;html=1;fillColor=#dae8fc;strokeColor=#000000;" vertex="1" parent="1">
          <mxGeometry x="610" y="220" width="30" height="30" as="geometry" />
        </mxCell>
        <mxCell id="3akI25MSRVjO1WuBP2-e-137" value="" style="rounded=0;whiteSpace=wrap;html=1;fillColor=#dae8fc;strokeColor=#000000;" vertex="1" parent="1">
          <mxGeometry x="400" y="250" width="30" height="30" as="geometry" />
        </mxCell>
        <mxCell id="3akI25MSRVjO1WuBP2-e-138" value="" style="rounded=0;whiteSpace=wrap;html=1;fillColor=#dae8fc;strokeColor=#000000;" vertex="1" parent="1">
          <mxGeometry x="430" y="250" width="30" height="30" as="geometry" />
        </mxCell>
        <mxCell id="3akI25MSRVjO1WuBP2-e-139" value="" style="rounded=0;whiteSpace=wrap;html=1;fillColor=#dae8fc;strokeColor=#000000;" vertex="1" parent="1">
          <mxGeometry x="460" y="250" width="30" height="30" as="geometry" />
        </mxCell>
        <mxCell id="3akI25MSRVjO1WuBP2-e-140" value="" style="rounded=0;whiteSpace=wrap;html=1;fillColor=#dae8fc;strokeColor=#000000;" vertex="1" parent="1">
          <mxGeometry x="490" y="250" width="30" height="30" as="geometry" />
        </mxCell>
        <mxCell id="3akI25MSRVjO1WuBP2-e-141" value="" style="rounded=0;whiteSpace=wrap;html=1;fillColor=#dae8fc;strokeColor=#000000;" vertex="1" parent="1">
          <mxGeometry x="520" y="250" width="30" height="30" as="geometry" />
        </mxCell>
        <mxCell id="3akI25MSRVjO1WuBP2-e-142" value="" style="rounded=0;whiteSpace=wrap;html=1;fillColor=#dae8fc;strokeColor=#000000;" vertex="1" parent="1">
          <mxGeometry x="550" y="250" width="30" height="30" as="geometry" />
        </mxCell>
        <mxCell id="3akI25MSRVjO1WuBP2-e-143" value="" style="rounded=0;whiteSpace=wrap;html=1;fillColor=#dae8fc;strokeColor=#000000;" vertex="1" parent="1">
          <mxGeometry x="580" y="250" width="30" height="30" as="geometry" />
        </mxCell>
        <mxCell id="3akI25MSRVjO1WuBP2-e-144" value="" style="rounded=0;whiteSpace=wrap;html=1;fillColor=#dae8fc;strokeColor=#000000;" vertex="1" parent="1">
          <mxGeometry x="610" y="250" width="30" height="30" as="geometry" />
        </mxCell>
        <mxCell id="3akI25MSRVjO1WuBP2-e-145" value="" style="rounded=0;whiteSpace=wrap;html=1;fillColor=#FF0000;strokeColor=#000000;gradientColor=none;sketch=1;glass=0;shadow=0;strokeWidth=2;" vertex="1" parent="1">
          <mxGeometry x="760" y="40" width="30" height="30" as="geometry" />
        </mxCell>
        <mxCell id="3akI25MSRVjO1WuBP2-e-146" value="" style="rounded=0;whiteSpace=wrap;html=1;fillColor=#FF0000;strokeColor=#000000;sketch=1;strokeWidth=2;gradientColor=none;" vertex="1" parent="1">
          <mxGeometry x="790" y="40" width="30" height="30" as="geometry" />
        </mxCell>
        <mxCell id="3akI25MSRVjO1WuBP2-e-147" value="" style="rounded=0;whiteSpace=wrap;html=1;fillColor=#FF0000;strokeColor=#000000;sketch=1;strokeWidth=2;gradientColor=none;" vertex="1" parent="1">
          <mxGeometry x="820" y="40" width="30" height="30" as="geometry" />
        </mxCell>
        <mxCell id="3akI25MSRVjO1WuBP2-e-148" value="" style="rounded=0;whiteSpace=wrap;html=1;fillColor=#FF0000;strokeColor=#000000;sketch=1;strokeWidth=2;gradientColor=none;" vertex="1" parent="1">
          <mxGeometry x="850" y="40" width="30" height="30" as="geometry" />
        </mxCell>
        <mxCell id="3akI25MSRVjO1WuBP2-e-149" value="" style="rounded=0;whiteSpace=wrap;html=1;fillColor=#FF0000;strokeColor=#000000;sketch=1;strokeWidth=2;gradientColor=none;" vertex="1" parent="1">
          <mxGeometry x="880" y="40" width="30" height="30" as="geometry" />
        </mxCell>
        <mxCell id="3akI25MSRVjO1WuBP2-e-150" value="" style="rounded=0;whiteSpace=wrap;html=1;fillColor=#FF0000;strokeColor=#000000;sketch=1;strokeWidth=2;gradientColor=none;" vertex="1" parent="1">
          <mxGeometry x="910" y="40" width="30" height="30" as="geometry" />
        </mxCell>
        <mxCell id="3akI25MSRVjO1WuBP2-e-151" value="" style="rounded=0;whiteSpace=wrap;html=1;fillColor=#FF0000;strokeColor=#000000;sketch=1;strokeWidth=2;gradientColor=none;" vertex="1" parent="1">
          <mxGeometry x="940" y="40" width="30" height="30" as="geometry" />
        </mxCell>
        <mxCell id="3akI25MSRVjO1WuBP2-e-152" value="" style="rounded=0;whiteSpace=wrap;html=1;fillColor=#FF0000;strokeColor=#000000;sketch=1;strokeWidth=2;gradientColor=none;" vertex="1" parent="1">
          <mxGeometry x="970" y="40" width="30" height="30" as="geometry" />
        </mxCell>
        <mxCell id="3akI25MSRVjO1WuBP2-e-153" value="" style="rounded=0;whiteSpace=wrap;html=1;fillColor=#FF0000;strokeColor=#000000;sketch=1;strokeWidth=2;gradientColor=none;" vertex="1" parent="1">
          <mxGeometry x="760" y="70" width="30" height="30" as="geometry" />
        </mxCell>
        <mxCell id="3akI25MSRVjO1WuBP2-e-154" value="" style="rounded=0;whiteSpace=wrap;html=1;fillColor=#FF0000;strokeColor=#000000;sketch=1;strokeWidth=2;gradientColor=none;" vertex="1" parent="1">
          <mxGeometry x="790" y="70" width="30" height="30" as="geometry" />
        </mxCell>
        <mxCell id="3akI25MSRVjO1WuBP2-e-155" value="" style="rounded=0;whiteSpace=wrap;html=1;fillColor=#FF0000;strokeColor=#000000;sketch=1;strokeWidth=2;gradientColor=none;" vertex="1" parent="1">
          <mxGeometry x="820" y="70" width="30" height="30" as="geometry" />
        </mxCell>
        <mxCell id="3akI25MSRVjO1WuBP2-e-156" value="" style="rounded=0;whiteSpace=wrap;html=1;fillColor=#FF0000;strokeColor=#000000;sketch=1;strokeWidth=2;gradientColor=none;" vertex="1" parent="1">
          <mxGeometry x="850" y="70" width="30" height="30" as="geometry" />
        </mxCell>
        <mxCell id="3akI25MSRVjO1WuBP2-e-157" value="" style="rounded=0;whiteSpace=wrap;html=1;fillColor=#FF0000;strokeColor=#000000;sketch=1;strokeWidth=2;gradientColor=none;" vertex="1" parent="1">
          <mxGeometry x="880" y="70" width="30" height="30" as="geometry" />
        </mxCell>
        <mxCell id="3akI25MSRVjO1WuBP2-e-158" value="" style="rounded=0;whiteSpace=wrap;html=1;fillColor=#FF0000;strokeColor=#000000;sketch=1;strokeWidth=2;gradientColor=none;" vertex="1" parent="1">
          <mxGeometry x="910" y="70" width="30" height="30" as="geometry" />
        </mxCell>
        <mxCell id="3akI25MSRVjO1WuBP2-e-159" value="" style="rounded=0;whiteSpace=wrap;html=1;fillColor=#FF0000;strokeColor=#000000;sketch=1;strokeWidth=2;gradientColor=none;" vertex="1" parent="1">
          <mxGeometry x="940" y="70" width="30" height="30" as="geometry" />
        </mxCell>
        <mxCell id="3akI25MSRVjO1WuBP2-e-160" value="" style="rounded=0;whiteSpace=wrap;html=1;fillColor=#FF0000;strokeColor=#000000;sketch=1;strokeWidth=2;gradientColor=none;" vertex="1" parent="1">
          <mxGeometry x="970" y="70" width="30" height="30" as="geometry" />
        </mxCell>
        <mxCell id="3akI25MSRVjO1WuBP2-e-161" value="" style="rounded=0;whiteSpace=wrap;html=1;fillColor=#FF0000;strokeColor=#000000;sketch=1;strokeWidth=2;gradientColor=none;" vertex="1" parent="1">
          <mxGeometry x="760" y="100" width="30" height="30" as="geometry" />
        </mxCell>
        <mxCell id="3akI25MSRVjO1WuBP2-e-162" value="" style="rounded=0;whiteSpace=wrap;html=1;fillColor=#FF0000;strokeColor=#000000;sketch=1;strokeWidth=2;gradientColor=none;" vertex="1" parent="1">
          <mxGeometry x="790" y="100" width="30" height="30" as="geometry" />
        </mxCell>
        <mxCell id="3akI25MSRVjO1WuBP2-e-163" value="" style="rounded=0;whiteSpace=wrap;html=1;fillColor=#FF0000;strokeColor=#000000;sketch=1;strokeWidth=2;gradientColor=none;" vertex="1" parent="1">
          <mxGeometry x="820" y="100" width="30" height="30" as="geometry" />
        </mxCell>
        <mxCell id="3akI25MSRVjO1WuBP2-e-164" value="" style="rounded=0;whiteSpace=wrap;html=1;fillColor=#3399FF;strokeColor=#000000;" vertex="1" parent="1">
          <mxGeometry x="850" y="100" width="30" height="30" as="geometry" />
        </mxCell>
        <mxCell id="3akI25MSRVjO1WuBP2-e-165" value="" style="rounded=0;whiteSpace=wrap;html=1;fillColor=#3399FF;strokeColor=#000000;" vertex="1" parent="1">
          <mxGeometry x="880" y="100" width="30" height="30" as="geometry" />
        </mxCell>
        <mxCell id="3akI25MSRVjO1WuBP2-e-166" value="" style="rounded=0;whiteSpace=wrap;html=1;fillColor=#3399FF;strokeColor=#000000;" vertex="1" parent="1">
          <mxGeometry x="910" y="100" width="30" height="30" as="geometry" />
        </mxCell>
        <mxCell id="3akI25MSRVjO1WuBP2-e-167" value="" style="rounded=0;whiteSpace=wrap;html=1;fillColor=#3399FF;strokeColor=#000000;" vertex="1" parent="1">
          <mxGeometry x="940" y="100" width="30" height="30" as="geometry" />
        </mxCell>
        <mxCell id="3akI25MSRVjO1WuBP2-e-168" value="" style="rounded=0;whiteSpace=wrap;html=1;fillColor=#FF0000;strokeColor=#000000;sketch=1;strokeWidth=2;gradientColor=none;" vertex="1" parent="1">
          <mxGeometry x="970" y="100" width="30" height="30" as="geometry" />
        </mxCell>
        <mxCell id="3akI25MSRVjO1WuBP2-e-169" value="" style="rounded=0;whiteSpace=wrap;html=1;fillColor=#FF0000;strokeColor=#000000;sketch=1;strokeWidth=2;gradientColor=none;" vertex="1" parent="1">
          <mxGeometry x="760" y="130" width="30" height="30" as="geometry" />
        </mxCell>
        <mxCell id="3akI25MSRVjO1WuBP2-e-170" value="" style="rounded=0;whiteSpace=wrap;html=1;fillColor=#FF0000;strokeColor=#000000;sketch=1;strokeWidth=2;gradientColor=none;" vertex="1" parent="1">
          <mxGeometry x="790" y="130" width="30" height="30" as="geometry" />
        </mxCell>
        <mxCell id="3akI25MSRVjO1WuBP2-e-171" value="" style="rounded=0;whiteSpace=wrap;html=1;fillColor=#FF0000;strokeColor=#000000;sketch=1;strokeWidth=2;gradientColor=none;" vertex="1" parent="1">
          <mxGeometry x="820" y="130" width="30" height="30" as="geometry" />
        </mxCell>
        <mxCell id="3akI25MSRVjO1WuBP2-e-172" value="" style="rounded=0;whiteSpace=wrap;html=1;fillColor=#3399FF;strokeColor=#000000;" vertex="1" parent="1">
          <mxGeometry x="850" y="130" width="30" height="30" as="geometry" />
        </mxCell>
        <mxCell id="3akI25MSRVjO1WuBP2-e-173" value="" style="rounded=0;whiteSpace=wrap;html=1;fillColor=#3399FF;strokeColor=#000000;" vertex="1" parent="1">
          <mxGeometry x="880" y="130" width="30" height="30" as="geometry" />
        </mxCell>
        <mxCell id="3akI25MSRVjO1WuBP2-e-174" value="" style="rounded=0;whiteSpace=wrap;html=1;fillColor=#3399FF;strokeColor=#000000;" vertex="1" parent="1">
          <mxGeometry x="910" y="130" width="30" height="30" as="geometry" />
        </mxCell>
        <mxCell id="3akI25MSRVjO1WuBP2-e-175" value="" style="rounded=0;whiteSpace=wrap;html=1;fillColor=#3399FF;strokeColor=#000000;" vertex="1" parent="1">
          <mxGeometry x="940" y="130" width="30" height="30" as="geometry" />
        </mxCell>
        <mxCell id="3akI25MSRVjO1WuBP2-e-176" value="" style="rounded=0;whiteSpace=wrap;html=1;fillColor=#FF0000;strokeColor=#000000;sketch=1;strokeWidth=2;gradientColor=none;" vertex="1" parent="1">
          <mxGeometry x="970" y="130" width="30" height="30" as="geometry" />
        </mxCell>
        <mxCell id="3akI25MSRVjO1WuBP2-e-177" value="" style="rounded=0;whiteSpace=wrap;html=1;fillColor=#FF0000;strokeColor=#000000;sketch=1;strokeWidth=2;gradientColor=none;" vertex="1" parent="1">
          <mxGeometry x="760" y="160" width="30" height="30" as="geometry" />
        </mxCell>
        <mxCell id="3akI25MSRVjO1WuBP2-e-178" value="" style="rounded=0;whiteSpace=wrap;html=1;fillColor=#FF0000;strokeColor=#000000;sketch=1;strokeWidth=2;gradientColor=none;" vertex="1" parent="1">
          <mxGeometry x="790" y="160" width="30" height="30" as="geometry" />
        </mxCell>
        <mxCell id="3akI25MSRVjO1WuBP2-e-179" value="" style="rounded=0;whiteSpace=wrap;html=1;fillColor=#FF0000;strokeColor=#000000;sketch=1;strokeWidth=2;gradientColor=none;" vertex="1" parent="1">
          <mxGeometry x="820" y="160" width="30" height="30" as="geometry" />
        </mxCell>
        <mxCell id="3akI25MSRVjO1WuBP2-e-180" value="" style="rounded=0;whiteSpace=wrap;html=1;fillColor=#3399FF;strokeColor=#000000;" vertex="1" parent="1">
          <mxGeometry x="850" y="160" width="30" height="30" as="geometry" />
        </mxCell>
        <mxCell id="3akI25MSRVjO1WuBP2-e-181" value="" style="rounded=0;whiteSpace=wrap;html=1;fillColor=#3399FF;strokeColor=#000000;" vertex="1" parent="1">
          <mxGeometry x="880" y="160" width="30" height="30" as="geometry" />
        </mxCell>
        <mxCell id="3akI25MSRVjO1WuBP2-e-182" value="" style="rounded=0;whiteSpace=wrap;html=1;fillColor=#3399FF;strokeColor=#000000;" vertex="1" parent="1">
          <mxGeometry x="910" y="160" width="30" height="30" as="geometry" />
        </mxCell>
        <mxCell id="3akI25MSRVjO1WuBP2-e-183" value="" style="rounded=0;whiteSpace=wrap;html=1;fillColor=#3399FF;strokeColor=#000000;" vertex="1" parent="1">
          <mxGeometry x="940" y="160" width="30" height="30" as="geometry" />
        </mxCell>
        <mxCell id="3akI25MSRVjO1WuBP2-e-184" value="" style="rounded=0;whiteSpace=wrap;html=1;fillColor=#FF0000;strokeColor=#000000;sketch=1;strokeWidth=2;gradientColor=none;" vertex="1" parent="1">
          <mxGeometry x="970" y="160" width="30" height="30" as="geometry" />
        </mxCell>
        <mxCell id="3akI25MSRVjO1WuBP2-e-185" value="" style="rounded=0;whiteSpace=wrap;html=1;fillColor=#FF0000;strokeColor=#000000;sketch=1;strokeWidth=2;gradientColor=none;" vertex="1" parent="1">
          <mxGeometry x="760" y="190" width="30" height="30" as="geometry" />
        </mxCell>
        <mxCell id="3akI25MSRVjO1WuBP2-e-186" value="" style="rounded=0;whiteSpace=wrap;html=1;fillColor=#FF0000;strokeColor=#000000;sketch=1;strokeWidth=2;gradientColor=none;" vertex="1" parent="1">
          <mxGeometry x="790" y="190" width="30" height="30" as="geometry" />
        </mxCell>
        <mxCell id="3akI25MSRVjO1WuBP2-e-187" value="" style="rounded=0;whiteSpace=wrap;html=1;fillColor=#FF0000;strokeColor=#000000;sketch=1;strokeWidth=2;gradientColor=none;" vertex="1" parent="1">
          <mxGeometry x="820" y="190" width="30" height="30" as="geometry" />
        </mxCell>
        <mxCell id="3akI25MSRVjO1WuBP2-e-188" value="" style="rounded=0;whiteSpace=wrap;html=1;fillColor=#FF0000;strokeColor=#000000;sketch=1;strokeWidth=2;gradientColor=none;" vertex="1" parent="1">
          <mxGeometry x="850" y="190" width="30" height="30" as="geometry" />
        </mxCell>
        <mxCell id="3akI25MSRVjO1WuBP2-e-189" value="" style="rounded=0;whiteSpace=wrap;html=1;fillColor=#3399FF;strokeColor=#000000;" vertex="1" parent="1">
          <mxGeometry x="880" y="190" width="30" height="30" as="geometry" />
        </mxCell>
        <mxCell id="3akI25MSRVjO1WuBP2-e-190" value="" style="rounded=0;whiteSpace=wrap;html=1;fillColor=#3399FF;strokeColor=#000000;" vertex="1" parent="1">
          <mxGeometry x="910" y="190" width="30" height="30" as="geometry" />
        </mxCell>
        <mxCell id="3akI25MSRVjO1WuBP2-e-191" value="" style="rounded=0;whiteSpace=wrap;html=1;fillColor=#FF0000;strokeColor=#000000;sketch=1;strokeWidth=2;gradientColor=none;" vertex="1" parent="1">
          <mxGeometry x="940" y="190" width="30" height="30" as="geometry" />
        </mxCell>
        <mxCell id="3akI25MSRVjO1WuBP2-e-192" value="" style="rounded=0;whiteSpace=wrap;html=1;fillColor=#FF0000;strokeColor=#000000;sketch=1;strokeWidth=2;gradientColor=none;" vertex="1" parent="1">
          <mxGeometry x="970" y="190" width="30" height="30" as="geometry" />
        </mxCell>
        <mxCell id="3akI25MSRVjO1WuBP2-e-193" value="" style="rounded=0;whiteSpace=wrap;html=1;fillColor=#FF0000;strokeColor=#000000;sketch=1;strokeWidth=2;gradientColor=none;" vertex="1" parent="1">
          <mxGeometry x="760" y="220" width="30" height="30" as="geometry" />
        </mxCell>
        <mxCell id="3akI25MSRVjO1WuBP2-e-194" value="" style="rounded=0;whiteSpace=wrap;html=1;fillColor=#FF0000;strokeColor=#000000;sketch=1;strokeWidth=2;gradientColor=none;" vertex="1" parent="1">
          <mxGeometry x="790" y="220" width="30" height="30" as="geometry" />
        </mxCell>
        <mxCell id="3akI25MSRVjO1WuBP2-e-195" value="" style="rounded=0;whiteSpace=wrap;html=1;fillColor=#FF0000;strokeColor=#000000;sketch=1;strokeWidth=2;gradientColor=none;" vertex="1" parent="1">
          <mxGeometry x="820" y="220" width="30" height="30" as="geometry" />
        </mxCell>
        <mxCell id="3akI25MSRVjO1WuBP2-e-196" value="" style="rounded=0;whiteSpace=wrap;html=1;fillColor=#FF0000;strokeColor=#000000;sketch=1;strokeWidth=2;gradientColor=none;" vertex="1" parent="1">
          <mxGeometry x="850" y="220" width="30" height="30" as="geometry" />
        </mxCell>
        <mxCell id="3akI25MSRVjO1WuBP2-e-197" value="" style="rounded=0;whiteSpace=wrap;html=1;fillColor=#FF0000;strokeColor=#000000;sketch=1;strokeWidth=2;gradientColor=none;" vertex="1" parent="1">
          <mxGeometry x="880" y="220" width="30" height="30" as="geometry" />
        </mxCell>
        <mxCell id="3akI25MSRVjO1WuBP2-e-198" value="" style="rounded=0;whiteSpace=wrap;html=1;fillColor=#FF0000;strokeColor=#000000;sketch=1;strokeWidth=2;gradientColor=none;" vertex="1" parent="1">
          <mxGeometry x="910" y="220" width="30" height="30" as="geometry" />
        </mxCell>
        <mxCell id="3akI25MSRVjO1WuBP2-e-199" value="" style="rounded=0;whiteSpace=wrap;html=1;fillColor=#FF0000;strokeColor=#000000;sketch=1;strokeWidth=2;gradientColor=none;" vertex="1" parent="1">
          <mxGeometry x="940" y="220" width="30" height="30" as="geometry" />
        </mxCell>
        <mxCell id="3akI25MSRVjO1WuBP2-e-200" value="" style="rounded=0;whiteSpace=wrap;html=1;fillColor=#FF0000;strokeColor=#000000;sketch=1;strokeWidth=2;gradientColor=none;" vertex="1" parent="1">
          <mxGeometry x="970" y="220" width="30" height="30" as="geometry" />
        </mxCell>
        <mxCell id="3akI25MSRVjO1WuBP2-e-201" value="" style="rounded=0;whiteSpace=wrap;html=1;fillColor=#FF0000;strokeColor=#000000;sketch=1;strokeWidth=2;gradientColor=none;" vertex="1" parent="1">
          <mxGeometry x="760" y="250" width="30" height="30" as="geometry" />
        </mxCell>
        <mxCell id="3akI25MSRVjO1WuBP2-e-202" value="" style="rounded=0;whiteSpace=wrap;html=1;fillColor=#FF0000;strokeColor=#000000;sketch=1;strokeWidth=2;gradientColor=none;" vertex="1" parent="1">
          <mxGeometry x="790" y="250" width="30" height="30" as="geometry" />
        </mxCell>
        <mxCell id="3akI25MSRVjO1WuBP2-e-203" value="" style="rounded=0;whiteSpace=wrap;html=1;fillColor=#FF0000;strokeColor=#000000;sketch=1;strokeWidth=2;gradientColor=none;" vertex="1" parent="1">
          <mxGeometry x="820" y="250" width="30" height="30" as="geometry" />
        </mxCell>
        <mxCell id="3akI25MSRVjO1WuBP2-e-204" value="" style="rounded=0;whiteSpace=wrap;html=1;fillColor=#FF0000;strokeColor=#000000;sketch=1;strokeWidth=2;gradientColor=none;" vertex="1" parent="1">
          <mxGeometry x="850" y="250" width="30" height="30" as="geometry" />
        </mxCell>
        <mxCell id="3akI25MSRVjO1WuBP2-e-205" value="" style="rounded=0;whiteSpace=wrap;html=1;fillColor=#FF0000;strokeColor=#000000;sketch=1;strokeWidth=2;gradientColor=none;" vertex="1" parent="1">
          <mxGeometry x="880" y="250" width="30" height="30" as="geometry" />
        </mxCell>
        <mxCell id="3akI25MSRVjO1WuBP2-e-206" value="" style="rounded=0;whiteSpace=wrap;html=1;fillColor=#FF0000;strokeColor=#000000;sketch=1;strokeWidth=2;gradientColor=none;" vertex="1" parent="1">
          <mxGeometry x="910" y="250" width="30" height="30" as="geometry" />
        </mxCell>
        <mxCell id="3akI25MSRVjO1WuBP2-e-207" value="" style="rounded=0;whiteSpace=wrap;html=1;fillColor=#FF0000;strokeColor=#000000;sketch=1;strokeWidth=2;gradientColor=none;" vertex="1" parent="1">
          <mxGeometry x="940" y="250" width="30" height="30" as="geometry" />
        </mxCell>
        <mxCell id="3akI25MSRVjO1WuBP2-e-208" value="" style="rounded=0;whiteSpace=wrap;html=1;fillColor=#FF0000;strokeColor=#000000;sketch=1;strokeWidth=2;gradientColor=none;" vertex="1" parent="1">
          <mxGeometry x="970" y="250" width="30" height="30" as="geometry" />
        </mxCell>
        <mxCell id="3akI25MSRVjO1WuBP2-e-210" value="" style="ellipse;shape=cloud;whiteSpace=wrap;html=1;strokeColor=#000000;fillColor=#ffff88;" vertex="1" parent="1">
          <mxGeometry x="483" y="90" width="120" height="120" as="geometry" />
        </mxCell>
        <mxCell id="3akI25MSRVjO1WuBP2-e-211" value="" style="endArrow=classic;html=1;rounded=0;exitX=1;exitY=0;exitDx=0;exitDy=0;entryX=0;entryY=0;entryDx=0;entryDy=0;strokeWidth=2;strokeColor=#000000;" edge="1" parent="1" source="3akI25MSRVjO1WuBP2-e-56" target="3akI25MSRVjO1WuBP2-e-113">
          <mxGeometry width="50" height="50" relative="1" as="geometry">
            <mxPoint x="560" y="350" as="sourcePoint" />
            <mxPoint x="610" y="300" as="targetPoint" />
          </mxGeometry>
        </mxCell>
        <mxCell id="3akI25MSRVjO1WuBP2-e-212" value="" style="endArrow=classic;html=1;rounded=0;strokeWidth=2;exitX=1;exitY=0;exitDx=0;exitDy=0;entryX=0;entryY=0;entryDx=0;entryDy=0;strokeColor=#000000;" edge="1" parent="1" source="3akI25MSRVjO1WuBP2-e-120" target="3akI25MSRVjO1WuBP2-e-177">
          <mxGeometry width="50" height="50" relative="1" as="geometry">
            <mxPoint x="560" y="350" as="sourcePoint" />
            <mxPoint x="610" y="300" as="targetPoint" />
          </mxGeometry>
        </mxCell>
        <mxCell id="3akI25MSRVjO1WuBP2-e-213" value="&lt;font style=&quot;font-size: 18px&quot;&gt;Tampering&lt;/font&gt;" style="text;html=1;strokeColor=none;fillColor=none;align=center;verticalAlign=middle;whiteSpace=wrap;rounded=0;" vertex="1" parent="1">
          <mxGeometry x="310" y="170" width="60" height="30" as="geometry" />
        </mxCell>
        <mxCell id="3akI25MSRVjO1WuBP2-e-214" value="&lt;font style=&quot;font-size: 18px&quot;&gt;JPEG&lt;br&gt;Compression&lt;/font&gt;" style="text;html=1;strokeColor=none;fillColor=none;align=center;verticalAlign=middle;whiteSpace=wrap;rounded=0;" vertex="1" parent="1">
          <mxGeometry x="670" y="170" width="60" height="30" as="geometry" />
        </mxCell>
        <mxCell id="3akI25MSRVjO1WuBP2-e-215" value="" style="rounded=0;whiteSpace=wrap;html=1;fillColor=#dae8fc;strokeColor=#000000;" vertex="1" parent="1">
          <mxGeometry x="40" y="300" width="30" height="30" as="geometry" />
        </mxCell>
        <mxCell id="3akI25MSRVjO1WuBP2-e-216" value="" style="rounded=0;whiteSpace=wrap;html=1;fillColor=#3399FF;strokeColor=#000000;" vertex="1" parent="1">
          <mxGeometry x="760" y="300" width="30" height="30" as="geometry" />
        </mxCell>
        <mxCell id="3akI25MSRVjO1WuBP2-e-217" value="" style="rounded=0;whiteSpace=wrap;html=1;fillColor=#FF0000;strokeColor=#000000;sketch=1;strokeWidth=2;" vertex="1" parent="1">
          <mxGeometry x="760" y="350" width="30" height="30" as="geometry" />
        </mxCell>
        <mxCell id="3akI25MSRVjO1WuBP2-e-218" value="" style="rounded=0;whiteSpace=wrap;html=1;fillColor=#ffff88;strokeColor=#36393d;" vertex="1" parent="1">
          <mxGeometry x="400" y="300" width="30" height="30" as="geometry" />
        </mxCell>
        <mxCell id="3akI25MSRVjO1WuBP2-e-220" value="&lt;span style=&quot;font-size: 20px;&quot;&gt;JPEG block (Q1)&lt;/span&gt;" style="text;html=1;strokeColor=none;fillColor=none;align=left;verticalAlign=middle;whiteSpace=wrap;rounded=0;fontSize=20;" vertex="1" parent="1">
          <mxGeometry x="70" y="300" width="190" height="30" as="geometry" />
        </mxCell>
        <mxCell id="3akI25MSRVjO1WuBP2-e-221" value="&lt;span style=&quot;font-size: 20px;&quot;&gt;Manipulated region&lt;/span&gt;" style="text;html=1;strokeColor=none;fillColor=none;align=left;verticalAlign=middle;whiteSpace=wrap;rounded=0;fontSize=20;" vertex="1" parent="1">
          <mxGeometry x="430" y="300" width="190" height="30" as="geometry" />
        </mxCell>
        <mxCell id="3akI25MSRVjO1WuBP2-e-222" value="&lt;span style=&quot;font-size: 20px;&quot;&gt;Single JPEG block (Q2)&lt;/span&gt;" style="text;html=1;strokeColor=none;fillColor=none;align=left;verticalAlign=middle;whiteSpace=wrap;rounded=0;fontSize=20;" vertex="1" parent="1">
          <mxGeometry x="790" y="300" width="230" height="30" as="geometry" />
        </mxCell>
        <mxCell id="3akI25MSRVjO1WuBP2-e-223" value="&lt;span style=&quot;font-size: 20px;&quot;&gt;Double JPEG block (Q1,Q2)&lt;/span&gt;" style="text;html=1;strokeColor=none;fillColor=none;align=left;verticalAlign=middle;whiteSpace=wrap;rounded=0;fontSize=20;" vertex="1" parent="1">
          <mxGeometry x="790" y="350" width="260" height="30" as="geometry" />
        </mxCell>
      </root>
    </mxGraphModel>
  </diagram>
</mxfile>
